<svg width="474" height="399" viewBox="0 0 474 399" fill="none" xmlns="http://www.w3.org/2000/svg">
<path d="M77.4387 64.988L92.5187 1.288H100.943L102.867 11.896L86.7987 77H77.7507L77.4387 64.988ZM69.6907 1.288L82.1707 64.988L81.1307 77H71.0427L54.2467 1.288H69.6907ZM116.127 64.728L128.451 1.288H143.895L127.151 77H117.063L116.127 64.728ZM105.675 1.288L120.859 65.248L120.443 77H111.395L95.2227 11.844L97.3027 1.288H105.675ZM180.867 14.236L160.275 77H143.687L171.819 1.288H182.375L180.867 14.236ZM197.975 77L177.331 14.236L175.667 1.288H186.327L214.615 77H197.975ZM197.039 48.816V61.036H157.051V48.816H197.039ZM249.039 1.288V77H233.491V1.288H249.039ZM272.335 1.288V13.508H210.559V1.288H272.335ZM323.659 51.884H339.207C338.895 56.98 337.491 61.504 334.995 65.456C332.533 69.408 329.084 72.4933 324.647 74.712C320.244 76.9307 314.94 78.04 308.735 78.04C303.881 78.04 299.531 77.208 295.683 75.544C291.835 73.8453 288.541 71.4187 285.803 68.264C283.099 65.1093 281.036 61.296 279.615 56.824C278.193 52.352 277.483 47.3427 277.483 41.796V36.544C277.483 30.9973 278.211 25.988 279.667 21.516C281.157 17.0093 283.272 13.1787 286.011 10.024C288.784 6.86933 292.095 4.44267 295.943 2.744C299.791 1.04533 304.089 0.195998 308.839 0.195998C315.148 0.195998 320.469 1.34 324.803 3.628C329.171 5.916 332.551 9.07067 334.943 13.092C337.369 17.1133 338.825 21.6893 339.311 26.82H323.711C323.537 23.7693 322.931 21.1867 321.891 19.072C320.851 16.9227 319.273 15.3107 317.159 14.236C315.079 13.1267 312.305 12.572 308.839 12.572C306.239 12.572 303.968 13.0573 302.027 14.028C300.085 14.9987 298.456 16.472 297.139 18.448C295.821 20.424 294.833 22.92 294.175 25.936C293.551 28.9173 293.239 32.4187 293.239 36.44V41.796C293.239 45.7133 293.533 49.1627 294.123 52.144C294.712 55.0907 295.613 57.5867 296.827 59.632C298.075 61.6427 299.669 63.168 301.611 64.208C303.587 65.2133 305.961 65.716 308.735 65.716C311.993 65.716 314.68 65.196 316.795 64.156C318.909 63.116 320.521 61.5733 321.631 59.528C322.775 57.4827 323.451 54.9347 323.659 51.884ZM399.943 32.124V44.292H360.423V32.124H399.943ZM365.051 1.288V77H349.451V1.288H365.051ZM411.071 1.288V77H395.523V1.288H411.071ZM114.203 81.288L130.011 115.816L145.819 81.288H162.823L137.915 129.44V157H122.107V129.44L97.1467 81.288H114.203ZM230.371 117.376V120.964C230.371 126.719 229.591 131.884 228.031 136.46C226.471 141.036 224.269 144.936 221.427 148.16C218.584 151.349 215.187 153.793 211.235 155.492C207.317 157.191 202.967 158.04 198.183 158.04C193.433 158.04 189.083 157.191 185.131 155.492C181.213 153.793 177.816 151.349 174.939 148.16C172.061 144.936 169.825 141.036 168.231 136.46C166.671 131.884 165.891 126.719 165.891 120.964V117.376C165.891 111.587 166.671 106.421 168.231 101.88C169.791 97.304 171.992 93.404 174.835 90.18C177.712 86.956 181.109 84.4947 185.027 82.796C188.979 81.0973 193.329 80.248 198.079 80.248C202.863 80.248 207.213 81.0973 211.131 82.796C215.083 84.4947 218.48 86.956 221.323 90.18C224.2 93.404 226.419 97.304 227.979 101.88C229.573 106.421 230.371 111.587 230.371 117.376ZM214.615 120.964V117.272C214.615 113.251 214.251 109.715 213.523 106.664C212.795 103.613 211.72 101.048 210.299 98.968C208.877 96.888 207.144 95.328 205.099 94.288C203.053 93.2133 200.713 92.676 198.079 92.676C195.444 92.676 193.104 93.2133 191.059 94.288C189.048 95.328 187.332 96.888 185.911 98.968C184.524 101.048 183.467 103.613 182.739 106.664C182.011 109.715 181.647 113.251 181.647 117.272V120.964C181.647 124.951 182.011 128.487 182.739 131.572C183.467 134.623 184.541 137.205 185.963 139.32C187.384 141.4 189.117 142.977 191.163 144.052C193.208 145.127 195.548 145.664 198.183 145.664C200.817 145.664 203.157 145.127 205.203 144.052C207.248 142.977 208.964 141.4 210.351 139.32C211.737 137.205 212.795 134.623 213.523 131.572C214.251 128.487 214.615 124.951 214.615 120.964ZM283.411 81.288H298.959V131.312C298.959 137.136 297.711 142.041 295.215 146.028C292.753 150.015 289.339 153.013 284.971 155.024C280.637 157.035 275.645 158.04 269.995 158.04C264.344 158.04 259.317 157.035 254.915 155.024C250.547 153.013 247.115 150.015 244.619 146.028C242.157 142.041 240.927 137.136 240.927 131.312V81.288H256.527V131.312C256.527 134.709 257.064 137.483 258.139 139.632C259.213 141.781 260.756 143.359 262.767 144.364C264.812 145.369 267.221 145.872 269.995 145.872C272.837 145.872 275.247 145.369 277.223 144.364C279.233 143.359 280.759 141.781 281.799 139.632C282.873 137.483 283.411 134.709 283.411 131.312V81.288ZM311.803 81.288H340.039C345.828 81.288 350.803 82.1547 354.963 83.888C359.157 85.6213 362.381 88.1867 364.635 91.584C366.888 94.9813 368.015 99.1587 368.015 104.116C368.015 108.172 367.321 111.656 365.935 114.568C364.583 117.445 362.659 119.855 360.163 121.796C357.701 123.703 354.807 125.228 351.479 126.372L346.539 128.972H321.995L321.891 116.804H340.143C342.881 116.804 345.152 116.319 346.955 115.348C348.757 114.377 350.109 113.025 351.011 111.292C351.947 109.559 352.415 107.548 352.415 105.26C352.415 102.833 351.964 100.736 351.063 98.968C350.161 97.2 348.792 95.848 346.955 94.912C345.117 93.976 342.812 93.508 340.039 93.508H327.403V157H311.803V81.288ZM354.131 157L336.867 123.252L353.351 123.148L370.823 156.272V157H354.131ZM72.0307 254.236L51.4387 317H34.8507L62.9827 241.288H73.5387L72.0307 254.236ZM89.1387 317L68.4947 254.236L66.8307 241.288H77.4907L105.779 317H89.1387ZM88.2027 288.816V301.036H48.2147V288.816H88.2027ZM174.419 241.288V317H158.819L128.399 266.248V317H112.799V241.288H128.399L158.871 292.092V241.288H174.419ZM204.579 241.288V317H189.031V241.288H204.579ZM226.315 241.288H239.523L258.971 296.876L278.419 241.288H291.627L264.275 317H253.667L226.315 241.288ZM219.191 241.288H232.347L234.739 295.472V317H219.191V241.288ZM285.595 241.288H298.803V317H283.203V295.472L285.595 241.288ZM344.199 254.236L323.607 317H307.019L335.151 241.288H345.707L344.199 254.236ZM361.307 317L340.663 254.236L338.999 241.288H349.659L377.947 317H361.307ZM360.371 288.816V301.036H320.383V288.816H360.371ZM433.639 304.832V317H395.523V304.832H433.639ZM400.567 241.288V317H384.967V241.288H400.567ZM117.843 357.376V360.964C117.843 366.719 117.063 371.884 115.503 376.46C113.943 381.036 111.741 384.936 108.899 388.16C106.056 391.349 102.659 393.793 98.7067 395.492C94.7893 397.191 90.4387 398.04 85.6547 398.04C80.9053 398.04 76.5547 397.191 72.6027 395.492C68.6853 393.793 65.288 391.349 62.4107 388.16C59.5333 384.936 57.2973 381.036 55.7027 376.46C54.1427 371.884 53.3627 366.719 53.3627 360.964V357.376C53.3627 351.587 54.1427 346.421 55.7027 341.88C57.2627 337.304 59.464 333.404 62.3067 330.18C65.184 326.956 68.5813 324.495 72.4987 322.796C76.4507 321.097 80.8013 320.248 85.5507 320.248C90.3347 320.248 94.6853 321.097 98.6027 322.796C102.555 324.495 105.952 326.956 108.795 330.18C111.672 333.404 113.891 337.304 115.451 341.88C117.045 346.421 117.843 351.587 117.843 357.376ZM102.087 360.964V357.272C102.087 353.251 101.723 349.715 100.995 346.664C100.267 343.613 99.192 341.048 97.7707 338.968C96.3493 336.888 94.616 335.328 92.5707 334.288C90.5253 333.213 88.1853 332.676 85.5507 332.676C82.916 332.676 80.576 333.213 78.5307 334.288C76.52 335.328 74.804 336.888 73.3827 338.968C71.996 341.048 70.9387 343.613 70.2107 346.664C69.4827 349.715 69.1187 353.251 69.1187 357.272V360.964C69.1187 364.951 69.4827 368.487 70.2107 371.572C70.9387 374.623 72.0133 377.205 73.4347 379.32C74.856 381.4 76.5893 382.977 78.6347 384.052C80.68 385.127 83.02 385.664 85.6547 385.664C88.2893 385.664 90.6293 385.127 92.6747 384.052C94.72 382.977 96.436 381.4 97.8227 379.32C99.2093 377.205 100.267 374.623 100.995 371.572C101.723 368.487 102.087 364.951 102.087 360.964ZM190.695 321.288V397H175.095L144.675 346.248V397H129.075V321.288H144.675L175.147 372.092V321.288H190.695ZM252.939 384.832V397H214.823V384.832H252.939ZM219.867 321.288V397H204.267V321.288H219.867ZM278.471 321.288V397H262.923V321.288H278.471ZM354.703 321.288V397H339.103L308.683 346.248V397H293.083V321.288H308.683L339.155 372.092V321.288H354.703ZM419.079 384.832V397H378.779V384.832H419.079ZM383.875 321.288V397H368.275V321.288H383.875ZM413.827 352.124V363.98H378.779V352.124H413.827ZM419.027 321.288V333.508H378.779V321.288H419.027Z" fill="white"/>
<path d="M16.3907 161.288V237H0.790655V161.288H16.3907ZM46.5507 193.632V205.8H12.1267V193.632H46.5507ZM50.1907 161.288V173.508H12.1267V161.288H50.1907ZM80.4547 174.236L59.8627 237H43.2747L71.4067 161.288H81.9627L80.4547 174.236ZM97.5627 237L76.9187 174.236L75.2547 161.288H85.9147L114.203 237H97.5627ZM96.6267 208.816V221.036H56.6387V208.816H96.6267ZM144.259 221.192L162.095 161.288H179.463L153.099 237H141.659L144.259 221.192ZM127.827 161.288L145.611 221.192L148.315 237H136.771L110.563 161.288H127.827ZM247.999 197.376V200.964C247.999 206.719 247.219 211.884 245.659 216.46C244.099 221.036 241.897 224.936 239.055 228.16C236.212 231.349 232.815 233.793 228.863 235.492C224.945 237.191 220.595 238.04 215.811 238.04C211.061 238.04 206.711 237.191 202.759 235.492C198.841 233.793 195.444 231.349 192.567 228.16C189.689 224.936 187.453 221.036 185.859 216.46C184.299 211.884 183.519 206.719 183.519 200.964V197.376C183.519 191.587 184.299 186.421 185.859 181.88C187.419 177.304 189.62 173.404 192.463 170.18C195.34 166.956 198.737 164.495 202.655 162.796C206.607 161.097 210.957 160.248 215.707 160.248C220.491 160.248 224.841 161.097 228.759 162.796C232.711 164.495 236.108 166.956 238.951 170.18C241.828 173.404 244.047 177.304 245.607 181.88C247.201 186.421 247.999 191.587 247.999 197.376ZM232.243 200.964V197.272C232.243 193.251 231.879 189.715 231.151 186.664C230.423 183.613 229.348 181.048 227.927 178.968C226.505 176.888 224.772 175.328 222.727 174.288C220.681 173.213 218.341 172.676 215.707 172.676C213.072 172.676 210.732 173.213 208.687 174.288C206.676 175.328 204.96 176.888 203.539 178.968C202.152 181.048 201.095 183.613 200.367 186.664C199.639 189.715 199.275 193.251 199.275 197.272V200.964C199.275 204.951 199.639 208.487 200.367 211.572C201.095 214.623 202.169 217.205 203.591 219.32C205.012 221.4 206.745 222.977 208.791 224.052C210.836 225.127 213.176 225.664 215.811 225.664C218.445 225.664 220.785 225.127 222.831 224.052C224.876 222.977 226.592 221.4 227.979 219.32C229.365 217.205 230.423 214.623 231.151 211.572C231.879 208.487 232.243 204.951 232.243 200.964ZM259.231 161.288H287.467C293.256 161.288 298.231 162.155 302.391 163.888C306.585 165.621 309.809 168.187 312.063 171.584C314.316 174.981 315.443 179.159 315.443 184.116C315.443 188.172 314.749 191.656 313.363 194.568C312.011 197.445 310.087 199.855 307.591 201.796C305.129 203.703 302.235 205.228 298.907 206.372L293.967 208.972H269.423L269.319 196.804H287.571C290.309 196.804 292.58 196.319 294.383 195.348C296.185 194.377 297.537 193.025 298.439 191.292C299.375 189.559 299.843 187.548 299.843 185.26C299.843 182.833 299.392 180.736 298.491 178.968C297.589 177.2 296.22 175.848 294.383 174.912C292.545 173.976 290.24 173.508 287.467 173.508H274.831V237H259.231V161.288ZM301.559 237L284.295 203.252L300.779 203.148L318.251 236.272V237H301.559ZM344.043 161.288V237H328.495V161.288H344.043ZM390.947 161.288V237H375.399V161.288H390.947ZM414.243 161.288V173.508H352.467V161.288H414.243ZM473.939 224.832V237H433.639V224.832H473.939ZM438.735 161.288V237H423.135V161.288H438.735ZM468.687 192.124V203.98H433.639V192.124H468.687ZM473.887 161.288V173.508H433.639V161.288H473.887Z" fill="#FFEE2E"/>
</svg>
